# xmcd
#
# Track frame offsets:
#	150
#	28352
#	61088
#	83584
#	111646
#	139694
#	180965
#	222857
#	254999
#
# Disc length: 3664 seconds
#
# Revision: 0
# Processed by: cddbd v1.5.2PL0 Copyright (c) Steve Scherf et al.
# Submitted via: EasyCDDAExtractor 2010.6.0.0
#
DISCID=820e4e09
DTITLE=Various Artist - 30th Aniversary - Premium Of The Arena Tour 1
DYEAR=2010
DGENRE=J-Rock
TTITLE0=Nagabuchi Tsuyoshi - 001
TTITLE1=Nagabuchi Tsuyoshi - 002
TTITLE2=Nagabuchi Tsuyoshi - 003
TTITLE3=Nagabuchi Tsuyoshi - 004
TTITLE4=Nagabuchi Tsuyoshi - 005
TTITLE5=Nagabuchi Tsuyoshi - 006
TTITLE6=Nagabuchi Tsuyoshi - 007
TTITLE7=Nagabuchi Tsuyoshi - 008
TTITLE8=Arena - 009
EXTD=
EXTT0=
EXTT1=
EXTT2=
EXTT3=
EXTT4=
EXTT5=
EXTT6=
EXTT7=
EXTT8=
PLAYORDER=
